<svg width="18" height="22" viewBox="4 -3 18 22" fill="none" xmlns="http://www.w3.org/2000/svg">
<g filter="url(#filter0_d_2125_748)">
<path fill-rule="evenodd" clip-rule="evenodd" d="M13.3431 15.0714L19.7071 8.7074C20.0976 8.31688 20.0976 7.68371 19.7071 7.29319L13.3431 0.929229C12.9526 0.538704 12.3195 0.538704 11.9289 0.929229C11.5384 1.31975 11.5384 1.95292 11.9289 2.34344L16.5858 7.0003L5 7.0003C4.44772 7.0003 4 7.44801 4 8.0003C4 8.55258 4.44772 9.0003 5 9.0003L16.5858 9.0003L11.9289 13.6572C11.5384 14.0477 11.5384 14.6808 11.9289 15.0714C12.3195 15.4619 12.9526 15.4619 13.3431 15.0714Z" fill="#9397A3"/>
</g>
<defs>
<filter id="filter0_d_2125_748" x="0" y="0.636353" width="24" height="22.7279" filterUnits="userSpaceOnUse" color-interpolation-filters="sRGB">
<feFlood flood-opacity="0" result="BackgroundImageFix"/>
<feColorMatrix in="SourceAlpha" type="matrix" values="0 0 0 0 0 0 0 0 0 0 0 0 0 0 0 0 0 0 127 0" result="hardAlpha"/>
<feOffset dy="4"/>
<feGaussianBlur stdDeviation="2"/>
<feComposite in2="hardAlpha" operator="out"/>
<feColorMatrix type="matrix" values="0 0 0 0 0 0 0 0 0 0 0 0 0 0 0 0 0 0 0.25 0"/>
<feBlend mode="normal" in2="BackgroundImageFix" result="effect1_dropShadow_2125_748"/>
<feBlend mode="normal" in="SourceGraphic" in2="effect1_dropShadow_2125_748" result="shape"/>
</filter>
</defs>
</svg>
