<svg width="24" height="24" viewBox="0 0 24 24" fill="none" xmlns="http://www.w3.org/2000/svg">
<path fill-rule="evenodd" clip-rule="evenodd" d="M20 14H21C21.2652 14 21.5196 14.1054 21.7071 14.2929C21.8946 14.4804 22 14.7348 22 15V17C22 17.7956 21.6839 18.5587 21.1213 19.1213C20.5587 19.6839 19.7956 20 19 20H5C4.20435 20 3.44129 19.6839 2.87868 19.1213C2.31607 18.5587 2 17.7956 2 17V15C2 14.7348 2.10536 14.4804 2.29289 14.2929C2.48043 14.1054 2.73478 14 3 14H4V7C4 6.20435 4.31607 5.44129 4.87868 4.87868C5.44129 4.31607 6.20435 4 7 4H17C17.7956 4 18.5587 4.31607 19.1213 4.87868C19.6839 5.44129 20 6.20435 20 7V14ZM6.29289 6.29289C6.10536 6.48043 6 6.73478 6 7V14H6.25923C6.34375 13.831 6.44255 13.6725 6.54564 13.5281C6.85297 13.0979 7.2797 12.6785 7.79376 12.3113C8.474 11.8254 9.23785 11.4747 10.0388 11.2593C9.42046 10.7773 9 10.0242 9 9C9 7.34315 10.3431 6 12 6C13.6569 6 15 7.34315 15 9C15 10.0242 14.5795 10.7773 13.9612 11.2593C14.7622 11.4747 15.526 11.8254 16.2062 12.3113C16.7203 12.6785 17.147 13.0979 17.4544 13.5281C17.5575 13.6725 17.6563 13.831 17.7408 14H18V7C18 6.73478 17.8946 6.48043 17.7071 6.29289C17.5196 6.10536 17.2652 6 17 6H12H7C6.73478 6 6.48043 6.10536 6.29289 6.29289ZM15.1274 14C15.1002 13.9795 15.0723 13.9591 15.0438 13.9387C14.3249 13.4252 13.2756 13 12 13C10.7244 13 9.67512 13.4252 8.95624 13.9387C8.92773 13.9591 8.89984 13.9795 8.87257 14H15.1274ZM20 16V17C20 17.2652 19.8946 17.5196 19.7071 17.7071C19.5196 17.8946 19.2652 18 19 18H5C4.73478 18 4.48043 17.8946 4.29289 17.7071C4.10536 17.5196 4 17.2652 4 17V16H20ZM13 9C13 9.55228 12.5523 10 12 10C11.4477 10 11 9.55228 11 9C11 8.44772 11.4477 8 12 8C12.5523 8 13 8.44772 13 9Z" fill="#212329"/>
</svg>
