<svg width="24" height="24" viewBox="0 0 24 24" fill="none" xmlns="http://www.w3.org/2000/svg">
<path d="M9.29079 16.9777C9.10454 16.7903 9 16.5369 9 16.2727C9 16.0085 9.10454 15.755 9.29079 15.5677L12.8308 11.9777L9.29079 8.43768C9.10454 8.25032 9 7.99686 9 7.73268C9 7.46849 9.10454 7.21504 9.29079 7.02768C9.38376 6.93395 9.49436 6.85956 9.61622 6.80879C9.73807 6.75802 9.86878 6.73188 10.0008 6.73188C10.1328 6.73188 10.2635 6.75802 10.3854 6.80879C10.5072 6.85956 10.6178 6.93395 10.7108 7.02768L14.9508 11.2677C15.0445 11.3606 15.1189 11.4712 15.1697 11.5931C15.2205 11.715 15.2466 11.8457 15.2466 11.9777C15.2466 12.1097 15.2205 12.2404 15.1697 12.3623C15.1189 12.4841 15.0445 12.5947 14.9508 12.6877L10.7108 16.9777C10.6178 17.0714 10.5072 17.1458 10.3854 17.1966C10.2635 17.2473 10.1328 17.2735 10.0008 17.2735C9.86878 17.2735 9.73807 17.2473 9.61622 17.1966C9.49436 17.1458 9.38375 17.0714 9.29079 16.9777Z" fill="#212329"/>
</svg>
