<svg width="24" height="24" viewBox="0 0 24 24" fill="none" xmlns="http://www.w3.org/2000/svg">
<path d="M8 15H3C2.4 15 2 15.4 2 16C2 16.6 2.4 17 3 17H7V21C7 21.6 7.4 22 8 22C8.6 22 9 21.6 9 21V16C9 15.4 8.6 15 8 15ZM8 2C7.4 2 7 2.4 7 3V7H3C2.4 7 2 7.4 2 8C2 8.6 2.4 9 3 9H8C8.6 9 9 8.6 9 8V3C9 2.4 8.6 2 8 2ZM16 9H21C21.6 9 22 8.6 22 8C22 7.4 21.6 7 21 7H17V3C17 2.4 16.6 2 16 2C15.4 2 15 2.4 15 3V8C15 8.6 15.4 9 16 9ZM21 15H16C15.4 15 15 15.4 15 16V21C15 21.6 15.4 22 16 22C16.6 22 17 21.6 17 21V17H21C21.6 17 22 16.6 22 16C22 15.4 21.6 15 21 15Z" fill="white"/>
</svg>
